<svg width="118" height="120" viewBox="0 0 118 120" fill="none" xmlns="http://www.w3.org/2000/svg">
<mask id="mask0_57_39" style="mask-type:luminance" maskUnits="userSpaceOnUse" x="0" y="0" width="118" height="120">
<path d="M0 0H118V120H0V0Z" fill="white"/>
</mask>
<g mask="url(#mask0_57_39)">
<path d="M13.6995 0.0297852L7.74047 6.4356L1.73886 0.0297852L0.0409722 1.84001L6.04258 8.20205L0.0409722 14.6079L1.73886 16.4198L7.74047 10.014L13.7421 16.4198L15.4383 14.6079L9.39575 8.20205L15.3974 1.79624L13.6995 0.0297852ZM47.8867 0.0297852L41.8851 6.4356L35.9261 0.0297852L34.2282 1.84001L40.2298 8.24582L34.2708 14.6079L35.9671 16.4198L41.9277 10.014L47.9293 16.4198L49.6256 14.6079L43.6239 8.20205L49.6256 1.79624L47.8867 0.0297852ZM82.1165 0.0297852L76.1149 6.4356L70.1133 0.0297852L68.4154 1.84001L74.417 8.24582L68.4154 14.6516L70.1133 16.4636L76.1149 10.014L82.1165 16.4198L83.8128 14.6079L77.8112 8.20205L83.8128 1.79624L82.1165 0.0297852ZM117.959 1.84001L116.261 0.0297852L110.261 6.4356L104.341 0.0297852L102.645 1.84001L108.647 8.24582L102.645 14.6516L104.341 16.4636L110.302 10.014L116.304 16.4198L118 14.6079L111.998 8.20205L117.959 1.84001ZM13.6995 34.5326L7.74047 40.9384L1.73886 34.5326L0.0409722 36.3428L6.04258 42.7049L0.0409722 49.1107L1.73886 50.9226L7.74047 44.5168L13.7421 50.9226L15.4383 49.1107L9.39575 42.7049L15.3974 36.299L13.6995 34.5326ZM47.8867 34.5326L41.9277 40.9384L35.9261 34.5326L34.2282 36.3428L40.2298 42.7486L34.2282 49.1544L35.9261 50.9664L41.9277 44.5606L47.9293 50.9664L49.6256 49.1544L43.583 42.7049L49.5846 36.299L47.8867 34.5326ZM82.1165 34.5326L76.1149 40.9384L70.1133 34.5326L68.4154 36.3428L74.417 42.7486L68.4154 49.1544L70.1133 50.9664L76.1149 44.5606L82.1165 50.9664L83.8128 49.1544L77.8112 42.7049L83.8128 36.299L82.1165 34.5326ZM116.304 34.5326L110.302 40.9384L104.301 34.5326L102.604 36.3428L108.604 42.7486L102.604 49.1544L104.301 50.9664L110.302 44.5606L116.304 50.9664L118 49.1544L111.998 42.7049L118 36.299L116.304 34.5326ZM13.6995 69.0354L7.69786 75.4412L1.69789 69.0354L0 70.8456L6.04258 77.2514L0.0409722 83.6135L1.73886 85.4254L7.74047 79.0196L13.7421 85.4254L15.4383 83.6135L9.43672 77.2077L15.4383 70.8018L13.6995 69.0354ZM47.8867 69.0354L41.8851 75.4412L35.8851 69.0354L34.1872 70.8456L40.1888 77.2514L34.1872 83.6572L35.8851 85.4692L41.8851 79.0634L47.8867 85.4692L49.5846 83.6572L43.583 77.2514L49.5846 70.8456L47.8867 69.0354ZM82.1165 69.0354L76.1149 75.4412L70.1133 69.0354L68.4154 70.8456L74.417 77.2514L68.4154 83.6572L70.1133 85.4692L76.1149 79.0634L82.1165 85.4692L83.8128 83.6572L77.8112 77.2514L83.8128 70.8456L82.1165 69.0354ZM116.304 69.0354L110.302 75.4412L104.301 69.0354L102.604 70.8456L108.604 77.2514L102.604 83.6572L104.301 85.4692L110.302 79.0634L116.304 85.4692L118 83.6572L111.998 77.2077L118 70.8018L116.304 69.0354ZM13.6995 103.538L7.69786 109.944L1.69789 103.538L0 105.35L6.04258 111.756L0.0835833 118.116L1.77983 119.928L7.78144 113.522L13.7831 119.928L15.4793 118.116L9.47769 111.71L15.4793 105.305L13.6995 103.538ZM47.9293 103.538L41.9277 109.944L35.9261 103.538L34.2282 105.35L40.2298 111.756L34.2282 118.162L35.9261 119.972L41.9277 113.566L47.9293 119.972L49.6256 118.162L43.6239 111.756L49.6256 105.35L47.9293 103.538ZM82.1165 103.538L76.1149 109.944L70.1133 103.538L68.4154 105.35L74.417 111.756L68.4154 118.162L70.1133 119.972L76.1149 113.566L82.1165 119.972L83.8128 118.162L77.8112 111.756L83.8128 105.35L82.1165 103.538ZM116.304 103.538L110.302 109.944L104.301 103.538L102.604 105.35L108.604 111.756L102.604 118.162L104.301 119.972L110.302 113.566L116.304 119.972L118 118.162L111.998 111.71L118 105.305L116.304 103.538Z" fill="white"/>
</g>
</svg>
