<svg xmlns="http://www.w3.org/2000/svg" xmlns:xlink="http://www.w3.org/1999/xlink" width="500" zoomAndPan="magnify" viewBox="0 0 375 374.999991" height="500" preserveAspectRatio="xMidYMid meet" version="1.0"><defs><clipPath id="66f0ca77c4"><path d="M 47.003906 53.644531 L 328.253906 53.644531 L 328.253906 321.394531 L 47.003906 321.394531 Z M 47.003906 53.644531 " clip-rule="nonzero"/></clipPath></defs><g clip-path="url(#66f0ca77c4)"><path fill="#ff5e00" d="M 79.65625 53.710938 L 65.453125 68.003906 L 51.148438 53.710938 L 47.101562 57.75 L 61.40625 71.945312 L 47.101562 86.238281 L 51.148438 90.28125 L 65.453125 75.988281 L 79.757812 90.28125 L 83.800781 86.238281 L 69.398438 71.945312 L 83.703125 57.652344 Z M 161.140625 53.710938 L 146.835938 68.003906 L 132.632812 53.710938 L 128.585938 57.75 L 142.890625 72.042969 L 128.6875 86.238281 L 132.730469 90.28125 L 146.9375 75.988281 L 161.242188 90.28125 L 165.285156 86.238281 L 150.980469 71.945312 L 165.285156 57.652344 Z M 242.726562 53.710938 L 228.421875 68.003906 L 214.117188 53.710938 L 210.070312 57.75 L 224.375 72.042969 L 210.070312 86.335938 L 214.117188 90.378906 L 228.421875 75.988281 L 242.726562 90.28125 L 246.769531 86.238281 L 232.464844 71.945312 L 246.769531 57.652344 Z M 328.15625 57.75 L 324.109375 53.710938 L 309.808594 68.003906 L 295.699219 53.710938 L 291.65625 57.75 L 305.960938 72.042969 L 291.65625 86.335938 L 295.699219 90.378906 L 309.90625 75.988281 L 324.210938 90.28125 L 328.253906 86.238281 L 313.949219 71.945312 Z M 79.65625 130.695312 L 65.453125 144.988281 L 51.148438 130.695312 L 47.101562 134.734375 L 61.40625 148.929688 L 47.101562 163.222656 L 51.148438 167.265625 L 65.453125 152.972656 L 79.757812 167.265625 L 83.800781 163.222656 L 69.398438 148.929688 L 83.703125 134.636719 Z M 161.140625 130.695312 L 146.9375 144.988281 L 132.632812 130.695312 L 128.585938 134.734375 L 142.890625 149.027344 L 128.585938 163.320312 L 132.632812 167.363281 L 146.9375 153.070312 L 161.242188 167.363281 L 165.285156 163.320312 L 150.882812 148.929688 L 165.1875 134.636719 Z M 242.726562 130.695312 L 228.421875 144.988281 L 214.117188 130.695312 L 210.070312 134.734375 L 224.375 149.027344 L 210.070312 163.320312 L 214.117188 167.363281 L 228.421875 153.070312 L 242.726562 167.363281 L 246.769531 163.320312 L 232.464844 148.929688 L 246.769531 134.636719 Z M 324.210938 130.695312 L 309.90625 144.988281 L 295.601562 130.695312 L 291.558594 134.734375 L 305.859375 149.027344 L 291.558594 163.320312 L 295.601562 167.363281 L 309.90625 153.070312 L 324.210938 167.363281 L 328.253906 163.320312 L 313.949219 148.929688 L 328.253906 134.636719 Z M 79.65625 207.679688 L 65.351562 221.972656 L 51.050781 207.679688 L 47.003906 211.71875 L 61.40625 226.011719 L 47.101562 240.207031 L 51.148438 244.25 L 65.453125 229.957031 L 79.757812 244.25 L 83.800781 240.207031 L 69.496094 225.914062 L 83.800781 211.621094 Z M 161.140625 207.679688 L 146.835938 221.972656 L 132.535156 207.679688 L 128.488281 211.71875 L 142.792969 226.011719 L 128.488281 240.304688 L 132.535156 244.347656 L 146.835938 230.054688 L 161.140625 244.347656 L 165.1875 240.304688 L 150.882812 226.011719 L 165.1875 211.71875 Z M 242.726562 207.679688 L 228.421875 221.972656 L 214.117188 207.679688 L 210.070312 211.71875 L 224.375 226.011719 L 210.070312 240.304688 L 214.117188 244.347656 L 228.421875 230.054688 L 242.726562 244.347656 L 246.769531 240.304688 L 232.464844 226.011719 L 246.769531 211.71875 Z M 324.210938 207.679688 L 309.90625 221.972656 L 295.601562 207.679688 L 291.558594 211.71875 L 305.859375 226.011719 L 291.558594 240.304688 L 295.601562 244.347656 L 309.90625 230.054688 L 324.210938 244.347656 L 328.253906 240.304688 L 313.949219 225.914062 L 328.253906 211.621094 Z M 79.65625 284.664062 L 65.351562 298.957031 L 51.050781 284.664062 L 47.003906 288.707031 L 61.40625 303 L 47.203125 317.191406 L 51.246094 321.234375 L 65.550781 306.941406 L 79.855469 321.234375 L 83.898438 317.191406 L 69.59375 302.898438 L 83.898438 288.605469 Z M 161.242188 284.664062 L 146.9375 298.957031 L 132.632812 284.664062 L 128.585938 288.707031 L 142.890625 303 L 128.585938 317.292969 L 132.632812 321.332031 L 146.9375 307.039062 L 161.242188 321.332031 L 165.285156 317.292969 L 150.980469 303 L 165.285156 288.707031 Z M 242.726562 284.664062 L 228.421875 298.957031 L 214.117188 284.664062 L 210.070312 288.707031 L 224.375 303 L 210.070312 317.292969 L 214.117188 321.332031 L 228.421875 307.039062 L 242.726562 321.332031 L 246.769531 317.292969 L 232.464844 303 L 246.769531 288.707031 Z M 324.210938 284.664062 L 309.90625 298.957031 L 295.601562 284.664062 L 291.558594 288.707031 L 305.859375 303 L 291.558594 317.292969 L 295.601562 321.332031 L 309.90625 307.039062 L 324.210938 321.332031 L 328.253906 317.292969 L 313.949219 302.898438 L 328.253906 288.605469 Z M 324.210938 284.664062 " fill-opacity="1" fill-rule="nonzero"/></g></svg>