<svg xmlns="http://www.w3.org/2000/svg" xmlns:xlink="http://www.w3.org/1999/xlink" width="150" zoomAndPan="magnify" viewBox="0 0 112.5 112.499997" height="150" preserveAspectRatio="xMidYMid meet" version="1.0"><defs><clipPath id="aa42d4daec"><path d="M 37.792969 35.445312 L 77.542969 35.445312 L 77.542969 76.695312 L 37.792969 76.695312 Z M 37.792969 35.445312 " clip-rule="nonzero"/></clipPath></defs><g clip-path="url(#aa42d4daec)"><path fill="#ff5e00" d="M 76.019531 35.566406 L 74.234375 36.785156 C 64.898438 43.152344 55.339844 56.335938 50.570312 67.054688 C 49.835938 66.027344 49.613281 65.6875 48.898438 64.542969 C 45.984375 60.617188 42.285156 57.246094 40.53125 56 L 37.792969 57.144531 L 37.878906 57.304688 C 39.769531 59.371094 43.089844 63.957031 48.09375 74.058594 C 48.402344 74.492188 48.730469 74.921875 49.101562 75.320312 C 50.082031 76.367188 51.085938 76.585938 51.753906 76.585938 C 51.757812 76.585938 51.757812 76.585938 51.757812 76.585938 C 53.667969 76.585938 54.792969 75.082031 55.570312 73.320312 C 60.582031 54.769531 72.425781 41.996094 77.546875 37.621094 Z M 76.019531 35.566406 " fill-opacity="1" fill-rule="nonzero"/></g></svg>